<mxfile host="65bd71144e">
    <diagram id="v3g7OeFweVlJYxJXT5jb" name="SphinxParsernBuilder">
        <mxGraphModel dx="1542" dy="829" grid="1" gridSize="1" guides="1" tooltips="1" connect="1" arrows="1" fold="1" page="1" pageScale="1" pageWidth="850" pageHeight="1100" background="none" math="0" shadow="0">
            <root>
                <mxCell id="0"/>
                <mxCell id="1" parent="0"/>
                <mxCell id="16" style="edgeStyle=none;html=1;exitX=1;exitY=0.5;exitDx=0;exitDy=0;exitPerimeter=0;entryX=0.003;entryY=0.645;entryDx=0;entryDy=0;entryPerimeter=0;" parent="1" source="2" target="3" edge="1">
                    <mxGeometry relative="1" as="geometry"/>
                </mxCell>
                <mxCell id="2" value=".rst" style="strokeWidth=2;html=1;shape=mxgraph.flowchart.multi-document;whiteSpace=wrap;fillColor=#f0a30a;fontColor=#000000;strokeColor=#BD7000;" parent="1" vertex="1">
                    <mxGeometry x="210" y="140" width="88" height="60" as="geometry"/>
                </mxCell>
                <mxCell id="76" style="edgeStyle=none;html=1;exitX=0.5;exitY=1;exitDx=0;exitDy=0;" edge="1" parent="1" source="3" target="75">
                    <mxGeometry relative="1" as="geometry"/>
                </mxCell>
                <mxCell id="3" value="Parser&amp;nbsp;&lt;div&gt;(rst or MyST-parser)&lt;/div&gt;" style="rounded=1;whiteSpace=wrap;html=1;fillColor=#647687;fontColor=#ffffff;strokeColor=#314354;" parent="1" vertex="1">
                    <mxGeometry x="370" y="130" width="120" height="60" as="geometry"/>
                </mxCell>
                <mxCell id="19" style="edgeStyle=orthogonalEdgeStyle;html=1;exitX=1;exitY=0.5;exitDx=0;exitDy=0;entryX=0;entryY=0.5;entryDx=0;entryDy=0;strokeWidth=3;" parent="1" target="7" edge="1">
                    <mxGeometry relative="1" as="geometry">
                        <mxPoint x="500" y="330" as="sourcePoint"/>
                    </mxGeometry>
                </mxCell>
                <mxCell id="20" style="edgeStyle=orthogonalEdgeStyle;html=1;exitX=1;exitY=0.5;exitDx=0;exitDy=0;entryX=0;entryY=0.5;entryDx=0;entryDy=0;strokeWidth=3;" parent="1" target="8" edge="1">
                    <mxGeometry relative="1" as="geometry">
                        <mxPoint x="500" y="330" as="sourcePoint"/>
                    </mxGeometry>
                </mxCell>
                <mxCell id="21" style="edgeStyle=orthogonalEdgeStyle;html=1;exitX=1;exitY=0.5;exitDx=0;exitDy=0;entryX=0;entryY=0.5;entryDx=0;entryDy=0;strokeWidth=3;" parent="1" source="41" target="6" edge="1">
                    <mxGeometry relative="1" as="geometry">
                        <Array as="points">
                            <mxPoint x="533" y="330"/>
                            <mxPoint x="533" y="220"/>
                        </Array>
                        <mxPoint x="500" y="330" as="sourcePoint"/>
                    </mxGeometry>
                </mxCell>
                <mxCell id="5" value="" style="dashed=0;outlineConnect=0;html=1;align=center;labelPosition=center;verticalLabelPosition=bottom;verticalAlign=top;shape=mxgraph.webicons.adobe_pdf;fillColor=#F40C0C;gradientColor=#610603" parent="1" vertex="1">
                    <mxGeometry x="751.6" y="193.8" width="62.4" height="52.4" as="geometry"/>
                </mxCell>
                <mxCell id="26" style="edgeStyle=none;html=1;exitX=1;exitY=0.5;exitDx=0;exitDy=0;fontSize=24;" parent="1" source="6" target="5" edge="1">
                    <mxGeometry relative="1" as="geometry"/>
                </mxCell>
                <mxCell id="6" value="LaTeX Builder" style="rounded=1;whiteSpace=wrap;html=1;fillColor=#6d8764;fontColor=#ffffff;strokeColor=#3A5431;" parent="1" vertex="1">
                    <mxGeometry x="565" y="190" width="120" height="60" as="geometry"/>
                </mxCell>
                <mxCell id="27" style="edgeStyle=none;html=1;exitX=1;exitY=0.5;exitDx=0;exitDy=0;fontSize=24;" parent="1" source="7" target="14" edge="1">
                    <mxGeometry relative="1" as="geometry"/>
                </mxCell>
                <mxCell id="7" value="ePub Builder" style="rounded=1;whiteSpace=wrap;html=1;fillColor=#6d8764;fontColor=#ffffff;strokeColor=#3A5431;" parent="1" vertex="1">
                    <mxGeometry x="565" y="270" width="120" height="60" as="geometry"/>
                </mxCell>
                <mxCell id="28" style="edgeStyle=none;html=1;exitX=1;exitY=0.5;exitDx=0;exitDy=0;fontSize=24;" parent="1" source="8" target="22" edge="1">
                    <mxGeometry relative="1" as="geometry"/>
                </mxCell>
                <mxCell id="8" value="HTML Builder" style="rounded=1;whiteSpace=wrap;html=1;fillColor=#6d8764;fontColor=#ffffff;strokeColor=#3A5431;" parent="1" vertex="1">
                    <mxGeometry x="565" y="350" width="120" height="60" as="geometry"/>
                </mxCell>
                <mxCell id="29" style="edgeStyle=none;html=1;exitX=0.5;exitY=0;exitDx=0;exitDy=0;exitPerimeter=0;entryX=0.75;entryY=1;entryDx=0;entryDy=0;fontSize=24;" parent="1" source="9" edge="1">
                    <mxGeometry relative="1" as="geometry">
                        <mxPoint x="627.5" y="480" as="targetPoint"/>
                    </mxGeometry>
                </mxCell>
                <mxCell id="9" value="HTML Themes&lt;br&gt;(.css, .js)" style="strokeWidth=2;html=1;shape=mxgraph.flowchart.multi-document;whiteSpace=wrap;fillColor=#f0a30a;fontColor=#000000;strokeColor=#BD7000;" parent="1" vertex="1">
                    <mxGeometry x="583" y="507" width="88" height="60" as="geometry"/>
                </mxCell>
                <mxCell id="14" value="" style="sketch=0;pointerEvents=1;shadow=0;dashed=0;html=1;fillColor=#647687;labelPosition=center;verticalLabelPosition=bottom;verticalAlign=top;outlineConnect=0;align=center;shape=mxgraph.office.concepts.book_journal;strokeColor=#314354;fontColor=#ffffff;" parent="1" vertex="1">
                    <mxGeometry x="754.7" y="270" width="59.3" height="60" as="geometry"/>
                </mxCell>
                <mxCell id="22" value="" style="dashed=0;outlineConnect=0;html=1;align=center;labelPosition=center;verticalLabelPosition=bottom;verticalAlign=top;shape=mxgraph.webicons.html5;gradientColor=#DFDEDE" parent="1" vertex="1">
                    <mxGeometry x="754.7" y="350" width="72.4" height="62.4" as="geometry"/>
                </mxCell>
                <mxCell id="23" value="ePUB" style="text;html=1;strokeColor=none;fillColor=none;align=center;verticalAlign=middle;whiteSpace=wrap;rounded=0;" parent="1" vertex="1">
                    <mxGeometry x="760.9" y="280" width="60" height="30" as="geometry"/>
                </mxCell>
                <mxCell id="25" value="&lt;font style=&quot;font-size: 24px;&quot;&gt;&lt;b&gt;Sphinx + Docutils&lt;/b&gt;&lt;/font&gt;" style="text;html=1;strokeColor=none;fillColor=none;align=center;verticalAlign=middle;whiteSpace=wrap;rounded=0;dashed=1;strokeWidth=3;" parent="1" vertex="1">
                    <mxGeometry x="340" y="440" width="220" height="30" as="geometry"/>
                </mxCell>
                <mxCell id="46" style="edgeStyle=none;html=1;entryX=0.5;entryY=0;entryDx=0;entryDy=0;" edge="1" parent="1" source="30" target="31">
                    <mxGeometry relative="1" as="geometry"/>
                </mxCell>
                <mxCell id="30" value="C, C++ Header comments" style="strokeWidth=2;html=1;shape=mxgraph.flowchart.multi-document;whiteSpace=wrap;fillColor=#f0a30a;fontColor=#000000;strokeColor=#BD7000;" vertex="1" parent="1">
                    <mxGeometry x="74" y="210" width="88" height="60" as="geometry"/>
                </mxCell>
                <mxCell id="31" value="doxygen" style="rounded=1;whiteSpace=wrap;html=1;fillColor=#fff2cc;strokeColor=#d6b656;" vertex="1" parent="1">
                    <mxGeometry x="68" y="310" width="100" height="40" as="geometry"/>
                </mxCell>
                <mxCell id="32" value="XML" style="strokeWidth=2;html=1;shape=mxgraph.flowchart.multi-document;whiteSpace=wrap;fillColor=#f0a30a;fontColor=#000000;strokeColor=#BD7000;" vertex="1" parent="1">
                    <mxGeometry x="204" y="300" width="88" height="60" as="geometry"/>
                </mxCell>
                <mxCell id="34" style="edgeStyle=none;html=1;exitX=1;exitY=0.5;exitDx=0;exitDy=0;entryX=0;entryY=0.5;entryDx=0;entryDy=0;entryPerimeter=0;" edge="1" parent="1" source="31" target="32">
                    <mxGeometry relative="1" as="geometry"/>
                </mxCell>
                <mxCell id="35" style="edgeStyle=none;html=1;exitX=1;exitY=0.5;exitDx=0;exitDy=0;exitPerimeter=0;entryX=-0.001;entryY=0.593;entryDx=0;entryDy=0;entryPerimeter=0;" edge="1" parent="1" source="32">
                    <mxGeometry relative="1" as="geometry">
                        <mxPoint x="319.5899999999999" y="329.40999999999985" as="targetPoint"/>
                    </mxGeometry>
                </mxCell>
                <mxCell id="37" style="edgeStyle=none;html=1;entryX=0.5;entryY=0;entryDx=0;entryDy=0;" edge="1" parent="1" source="36" target="3">
                    <mxGeometry relative="1" as="geometry"/>
                </mxCell>
                <mxCell id="36" value=".md" style="strokeWidth=2;html=1;shape=mxgraph.flowchart.multi-document;whiteSpace=wrap;fillColor=#f0a30a;fontColor=#000000;strokeColor=#BD7000;" vertex="1" parent="1">
                    <mxGeometry x="386" y="30" width="88" height="60" as="geometry"/>
                </mxCell>
                <mxCell id="39" value="conf.py" style="shape=note;whiteSpace=wrap;html=1;backgroundOutline=1;darkOpacity=0.05;fillColor=#F0A30A;size=21;" vertex="1" parent="1">
                    <mxGeometry x="229" y="375" width="50" height="60" as="geometry"/>
                </mxCell>
                <mxCell id="40" value="images (png,.jpg, etc)" style="strokeWidth=2;html=1;shape=mxgraph.flowchart.multi-document;whiteSpace=wrap;fillColor=#f0a30a;fontColor=#000000;strokeColor=#BD7000;" vertex="1" parent="1">
                    <mxGeometry x="204" y="220" width="100" height="60" as="geometry"/>
                </mxCell>
                <mxCell id="41" value="AST (Enriched AST by Sphinx)" style="shape=document;whiteSpace=wrap;html=1;boundedLbl=1;fillColor=#e3c800;fontColor=#000000;strokeColor=#B09500;strokeWidth=3;" vertex="1" parent="1">
                    <mxGeometry x="370" y="290" width="120" height="80" as="geometry"/>
                </mxCell>
                <mxCell id="45" style="edgeStyle=none;html=1;exitX=0;exitY=0;exitDx=50;exitDy=40.5;exitPerimeter=0;entryX=-0.001;entryY=0.826;entryDx=0;entryDy=0;entryPerimeter=0;" edge="1" parent="1" source="39">
                    <mxGeometry relative="1" as="geometry">
                        <mxPoint x="319.5899999999999" y="415.6200000000001" as="targetPoint"/>
                    </mxGeometry>
                </mxCell>
                <mxCell id="47" style="edgeStyle=none;html=1;exitX=1;exitY=0.5;exitDx=0;exitDy=0;exitPerimeter=0;entryX=0.003;entryY=0.382;entryDx=0;entryDy=0;entryPerimeter=0;" edge="1" parent="1" source="40">
                    <mxGeometry relative="1" as="geometry">
                        <mxPoint x="321.23" y="251.33999999999992" as="targetPoint"/>
                    </mxGeometry>
                </mxCell>
                <mxCell id="62" value="" style="rounded=1;whiteSpace=wrap;html=1;fillColor=none;" vertex="1" parent="1">
                    <mxGeometry x="546" y="152" width="162" height="286" as="geometry"/>
                </mxCell>
                <mxCell id="63" value="&lt;b&gt;Builders&lt;/b&gt;" style="text;html=1;align=center;verticalAlign=middle;whiteSpace=wrap;rounded=0;" vertex="1" parent="1">
                    <mxGeometry x="586" y="157" width="60" height="30" as="geometry"/>
                </mxCell>
                <mxCell id="64" value="" style="group" vertex="1" connectable="0" parent="1">
                    <mxGeometry x="598" y="24" width="70" height="59" as="geometry"/>
                </mxCell>
                <mxCell id="65" value="" style="ellipse;whiteSpace=wrap;html=1;fillColor=#fad7ac;strokeColor=#b46504;" vertex="1" parent="64">
                    <mxGeometry x="2" width="26" height="18.310344827586206" as="geometry"/>
                </mxCell>
                <mxCell id="66" value="" style="ellipse;whiteSpace=wrap;html=1;fillColor=#fad7ac;strokeColor=#b46504;" vertex="1" parent="64">
                    <mxGeometry y="39.672413793103445" width="26" height="19.32758620689655" as="geometry"/>
                </mxCell>
                <mxCell id="67" value="" style="ellipse;whiteSpace=wrap;html=1;fillColor=#fad7ac;strokeColor=#b46504;" vertex="1" parent="64">
                    <mxGeometry x="43" y="1.0172413793103448" width="26" height="17.29310344827586" as="geometry"/>
                </mxCell>
                <mxCell id="68" value="" style="ellipse;whiteSpace=wrap;html=1;fillColor=#fad7ac;strokeColor=#b46504;" vertex="1" parent="64">
                    <mxGeometry x="25" y="19.32758620689655" width="23" height="19.32758620689655" as="geometry"/>
                </mxCell>
                <mxCell id="69" value="" style="ellipse;whiteSpace=wrap;html=1;fillColor=#fad7ac;strokeColor=#b46504;" vertex="1" parent="64">
                    <mxGeometry x="44" y="39.672413793103445" width="26" height="19.32758620689655" as="geometry"/>
                </mxCell>
                <mxCell id="70" value="&lt;b&gt;Extensions&lt;/b&gt;" style="text;html=1;align=center;verticalAlign=middle;whiteSpace=wrap;rounded=0;" vertex="1" parent="1">
                    <mxGeometry x="682" y="37" width="60" height="30" as="geometry"/>
                </mxCell>
                <mxCell id="72" value="" style="shape=flexArrow;endArrow=classic;html=1;fillColor=#fad7ac;strokeColor=#b46504;entryX=0.571;entryY=-0.001;entryDx=0;entryDy=0;entryPerimeter=0;" edge="1" parent="1" target="62">
                    <mxGeometry width="50" height="50" relative="1" as="geometry">
                        <mxPoint x="638" y="89" as="sourcePoint"/>
                        <mxPoint x="513" y="325" as="targetPoint"/>
                    </mxGeometry>
                </mxCell>
                <mxCell id="73" value="" style="rounded=0;whiteSpace=wrap;html=1;fillColor=none;dashed=1;strokeColor=#ae4132;" vertex="1" parent="1">
                    <mxGeometry x="321" y="105" width="413" height="375" as="geometry"/>
                </mxCell>
                <mxCell id="74" value="&lt;b&gt;Website&lt;/b&gt;" style="text;html=1;align=center;verticalAlign=middle;whiteSpace=wrap;rounded=0;" vertex="1" parent="1">
                    <mxGeometry x="828" y="365" width="60" height="30" as="geometry"/>
                </mxCell>
                <mxCell id="77" style="edgeStyle=none;html=1;" edge="1" parent="1" source="75" target="41">
                    <mxGeometry relative="1" as="geometry"/>
                </mxCell>
                <mxCell id="75" value="Partial AST" style="shape=document;whiteSpace=wrap;html=1;boundedLbl=1;fillColor=#e3c800;fontColor=#000000;strokeColor=#B09500;strokeWidth=3;" vertex="1" parent="1">
                    <mxGeometry x="381" y="214" width="98" height="46" as="geometry"/>
                </mxCell>
                <mxCell id="80" value="" style="shape=flexArrow;endArrow=classic;html=1;fillColor=#fad7ac;strokeColor=#b46504;" edge="1" parent="1">
                    <mxGeometry width="50" height="50" relative="1" as="geometry">
                        <mxPoint x="597" y="85" as="sourcePoint"/>
                        <mxPoint x="493" y="207" as="targetPoint"/>
                    </mxGeometry>
                </mxCell>
            </root>
        </mxGraphModel>
    </diagram>
</mxfile>